<svg width="35" height="35" viewBox="0 0 35 35" fill="none" xmlns="http://www.w3.org/2000/svg">
<path d="M32.0833 17.5001C32.0833 15.8959 30.7708 14.5834 29.1667 14.5834V10.2084C29.1667 8.60425 27.8542 7.29175 26.25 7.29175H8.74999C7.14582 7.29175 5.83332 8.60425 5.83332 10.2084V14.5834C4.22916 14.5834 2.91666 15.8959 2.91666 17.5001V24.7917H4.85624L5.83332 27.7084H7.29166L8.26874 24.7917H26.7458L27.7083 27.7084H29.1667L30.1437 24.7917H32.0833V17.5001ZM26.25 14.5834H18.9583V10.2084H26.25V14.5834ZM8.74999 10.2084H16.0417V14.5834H8.74999V10.2084ZM5.83332 17.5001H29.1667V21.8751H5.83332V17.5001Z" fill="#7838FF"/>
</svg>
