<svg width="35" height="35" viewBox="0 0 35 35" fill="none" xmlns="http://www.w3.org/2000/svg">
<path d="M16.0417 26.2501H18.9584V23.3334H16.0417V26.2501ZM17.5001 2.91675C9.45007 2.91675 2.91673 9.45008 2.91673 17.5001C2.91673 25.5501 9.45007 32.0834 17.5001 32.0834C25.5501 32.0834 32.0834 25.5501 32.0834 17.5001C32.0834 9.45008 25.5501 2.91675 17.5001 2.91675ZM17.5001 29.1667C11.0688 29.1667 5.8334 23.9313 5.8334 17.5001C5.8334 11.0688 11.0688 5.83341 17.5001 5.83341C23.9313 5.83341 29.1667 11.0688 29.1667 17.5001C29.1667 23.9313 23.9313 29.1667 17.5001 29.1667ZM17.5001 8.75008C14.2772 8.75008 11.6667 11.3605 11.6667 14.5834H14.5834C14.5834 12.9792 15.8959 11.6667 17.5001 11.6667C19.1042 11.6667 20.4167 12.9792 20.4167 14.5834C20.4167 17.5001 16.0417 17.1355 16.0417 21.8751H18.9584C18.9584 18.5938 23.3334 18.2292 23.3334 14.5834C23.3334 11.3605 20.723 8.75008 17.5001 8.75008Z" fill="#FFB320"/>
</svg>
